<svg xmlns="http://www.w3.org/2000/svg" viewBox="0 0 360 150" role="img" aria-labelledby="title desc">
  <title id="title">KK Constructions</title>
  <desc id="desc">Blue and white KK Constructions architectural mark</desc>
  <rect width="360" height="150" fill="#168fbe"/>
  <path d="M0 150V25L72 0l54 26v124H0z" fill="#168fbe"/>
  <path d="M22 132V37l47-21 36 18v98H22z" fill="#fff"/>
  <path d="M38 132V54l31-14 20 10v82H38z" fill="#168fbe"/>
  <path d="M54 132V62l15-7 12 6v71H54z" fill="#fff"/>
  <path d="M113 132V42h18v90zM113 78l42-36h30l-47 42 49 48h-31l-43-43z" fill="#fff"/>
  <path d="M190 42h65c20 0 35 15 35 35v20c0 20-15 35-35 35h-65V42zm25 22v46h38c7 0 12-5 12-13V77c0-8-5-13-12-13h-38z" fill="#fff"/>
  <text x="180" y="137" text-anchor="middle" font-family="Arial,Helvetica,sans-serif" font-size="13" font-weight="800" letter-spacing="3" fill="#fff">CONSTRUCTIONS</text>
</svg>