<svg xmlns="http://www.w3.org/2000/svg" viewBox="0 0 1200 800"><defs><linearGradient id="g" x1="0" x2="1"><stop stop-color="#17212b"/><stop offset="1" stop-color="#394b5a"/></linearGradient></defs><rect width="1200" height="800" fill="url(#g)"/><rect y="600" width="1200" height="200" fill="#10161c"/><g stroke="#d9e2e8" stroke-width="18" fill="none" opacity=".95"><path d="M180 650V170M420 650V170M660 650V170M900 650V170"/><path d="M100 300H980M100 470H980M100 640H980"/><path d="M180 170L420 300 660 170 900 300"/><path d="M180 470L420 640 660 470 900 640"/></g><g fill="#f3a83b"><rect x="150" y="130" width="70" height="28" rx="8"/><rect x="390" y="130" width="70" height="28" rx="8"/><rect x="630" y="130" width="70" height="28" rx="8"/><rect x="870" y="130" width="70" height="28" rx="8"/></g><text x="80" y="90" fill="white" font-family="Arial" font-size="46" font-weight="700">STEEL SCAFFOLDING</text></svg>